#!OML:ASF H:\BabyWalks\Project 1\Capture day 1\Session 1\baby.ASF
:FULLY-SPECIFIED
:DEGREES
686
root 39.0238 17.4599 1.01289 -178.636 87.7403 -180.097
lowerback 21.798 0.0584519 0.822053
upperback 6.58633 0.741788 0.269189
thorax -4.9831 0.560584 -0.385845
lowerneck 2.38862 2.308 6.8427
upperneck -11.4771 2.60284 -11.0522
head -3.52634 1.62016 -4.61936
rclavicle 3.97569e-016 1.49089e-014
rhumerus -43.8526 5.02549 -79.496
rradius 47.7591
rwrist 0.285474
rhand -10.6842 -17.7125
rfingers 7.12502
rthumb 15.3247 -47.1247
lclavicle 3.97569e-016 1.49089e-014
lhumerus -42.5567 -9.36616 79.5963
lradius 52.5525
lwrist 3.06612
lhand -3.67739 8.7179
lfingers 7.12502
lthumb 22.0637 37.4792
rfemur -17.0358 9.25575 19.5253
rtibia 31.6348
rfoot -15.9118 1.91058
rtoes 5.74829
lfemur -13.1581 -7.48151 -14.4305
ltibia 28.9704
lfoot -22.2073 -9.87261
ltoes -2.9176
687
root 39.0255 17.4602 1.01288 -178.711 87.768 -180.153
lowerback 21.7849 0.0636608 0.818426
upperback 6.58253 0.746769 0.266448
thorax -4.98048 0.562742 -0.387849
lowerneck 2.38502 2.30776 6.8482
upperneck -11.4651 2.60209 -11.0644
head -3.52189 1.6198 -4.62372
rclavicle 2.78299e-015 -5.56597e-015
rhumerus -43.8364 5.02574 -79.4604
rradius 47.7953
rwrist 0.22079
rhand -10.8097 -17.7133
rfingers 7.12502
rthumb 15.2038 -47.1347
lclavicle 2.78299e-015 -5.56597e-015
lhumerus -42.5846 -9.37179 79.6488
lradius 52.5968
lwrist 3.08938
lhand -3.66294 8.72695
lfingers 7.12502
lthumb 22.0776 37.4866
rfemur -17.0082 9.28217 19.5313
rtibia 31.6274
rfoot -15.9138 1.89618
rtoes 5.75019
lfemur -13.1068 -7.52233 -14.4387
ltibia 28.9432
lfoot -22.2118 -9.80025
ltoes -2.94622
688
root 39.0274 17.4606 1.01281 -178.861 87.8037 -180.285
lowerback 21.7718 0.0736091 0.811756
upperback 6.58002 0.757278 0.263174
thorax -4.97641 0.567637 -0.39008
lowerneck 2.38268 2.30578 6.85432
upperneck -11.4632 2.59924 -11.0701
head -3.52099 1.6183 -4.62638
rclavicle 1.2921e-015 2.24627e-014
rhumerus -43.8215 5.03728 -79.4339
rradius 47.8444
rwrist 0.147262
rhand -10.8981 -17.7042
rfingers 7.12502
rthumb 15.1187 -47.132
lclavicle 1.2921e-015 2.24627e-014
lhumerus -42.6187 -9.38044 79.6999
lradius 52.6321
lwrist 3.10471
lhand -3.64145 8.73013
lfingers 7.12502
lthumb 22.0982 37.4874
rfemur -16.9817 9.30618 19.5349
rtibia 31.6216
rfoot -15.9155 1.88862
rtoes 5.73899
lfemur -13.051 -7.55705 -14.4499
ltibia 28.9127
lfoot -22.2161 -9.72742
ltoes -2.97413
689
root 39.0293 17.4609 1.01263 -179.222 87.8457 -180.626
lowerback 21.7595 0.0875867 0.798529
upperback 6.57888 0.771597 0.257998
thorax -4.97126 0.574449 -0.391574
lowerneck 2.38221 2.30261 6.8571
upperneck -11.4712 2.59508 -11.0662
head -3.52372 1.61609 -4.62569
rclavicle 1.94809e-014 2.28602e-014
rhumerus -43.8069 5.06116 -79.4159
rradius 47.906
rwrist 0.0662909
rhand -10.9532 -17.6863
rfingers 7.12502
rthumb 15.0656 -47.1181
lclavicle 1.94809e-014 2.28602e-014
lhumerus -42.6596 -9.39182 79.7507
lradius 52.6591
lwrist 3.11464
lhand -3.61852 8.72444
lfingers 7.12502
lthumb 22.1202 37.4791
rfemur -16.9564 9.32589 19.5302
rtibia 31.6186
rfoot -15.9182 1.8897
rtoes 5.71527
lfemur -12.9904 -7.58389 -14.4697
ltibia 28.8785
lfoot -22.2205 -9.65839
ltoes -3.00071
690
root 39.0313 17.4611 1.01232 -179.68 87.8934 -181.066
lowerback 21.7472 0.104766 0.784814
upperback 6.57722 0.789803 0.251374
thorax -4.96659 0.583128 -0.395328
lowerneck 2.38904 2.29787 6.8565
upperneck -11.4903 2.58918 -11.0533
head -3.53137 1.61309 -4.62198
rclavicle 9.74045e-015 -1.19271e-014
rhumerus -43.7948 5.09466 -79.4067
rradius 47.9805
rwrist -0.022105
rhand -10.9756 -17.6657
rfingers 7.12502
rthumb 15.044 -47.0991
lclavicle 9.74045e-015 -1.19271e-014
lhumerus -42.7068 -9.40664 79.7999
lradius 52.6766
lwrist 3.12274
lhand -3.58487 8.71452
lfingers 7.12502
lthumb 22.1526 37.4653
rfemur -16.9362 9.34431 19.5211
rtibia 31.6195
rfoot -15.9212 1.90154
rtoes 5.70766
lfemur -12.9283 -7.60285 -14.4925
ltibia 28.8401
lfoot -22.2241 -9.59365
ltoes -3.02933
691
root 39.0332 17.4615 1.01199 -180.222 87.9444 -181.593
lowerback 21.732 0.123788 0.768814
upperback 6.5767 0.809896 0.244463
thorax -4.95925 0.592758 -0.398511
lowerneck 2.39941 2.29375 6.852
upperneck -11.5162 2.58451 -11.0315
head -3.54182 1.61064 -4.61509
rclavicle 1.67973e-014 6.16232e-015
rhumerus -43.781 5.13876 -79.4061
rradius 48.0658
rwrist -0.114371
rhand -10.9754 -17.6435
rfingers 7.12502
rthumb 15.0442 -47.0769
lclavicle 1.67973e-014 6.16232e-015
lhumerus -42.7586 -9.42239 79.8473
lradius 52.6863
lwrist 3.13032
lhand -3.53868 8.71366
lfingers 7.12502
lthumb 22.1969 37.4592
rfemur -16.9206 9.36295 19.5084
rtibia 31.6248
rfoot -15.9252 1.92301
rtoes 5.72196
lfemur -12.8657 -7.61161 -14.5169
ltibia 28.7972
lfoot -22.2246 -9.53957
ltoes -3.04584
692
root 39.0353 17.4618 1.01166 -180.926 87.9962 -182.282
lowerback 21.7155 0.144052 0.749576
upperback 6.57566 0.830738 0.236032
thorax -4.95181 0.602729 -0.401647
lowerneck 2.41372 2.28974 6.84803
upperneck -11.5452 2.58028 -11.0068
head -3.55386 1.60837 -4.60753
rclavicle 5.46658e-015 9.93923e-015
rhumerus -43.7683 5.19049 -79.415
rradius 48.1619
rwrist -0.211387
rhand -10.9546 -17.6256
rfingers 7.12502
rthumb 15.0642 -47.0575
lclavicle 5.46658e-015 9.93923e-015
lhumerus -42.8169 -9.44277 79.8933
lradius 52.682
lwrist 3.13282
lhand -3.49464 8.70615
lfingers 7.12502
lthumb 22.2392 37.4466
rfemur -16.9079 9.37922 19.4907
rtibia 31.6341
rfoot -15.9299 1.94903
rtoes 5.73371
lfemur -12.8024 -7.61151 -14.5457
ltibia 28.7515
lfoot -22.2239 -9.4954
ltoes -3.05263
693
root 39.0373 17.4622 1.01121 -181.816 88.0478 -183.16
lowerback 21.6975 0.164471 0.72807
upperback 6.57346 0.851041 0.2255
thorax -4.94482 0.61239 -0.405586
lowerneck 2.42852 2.28733 6.84509
upperneck -11.5701 2.57874 -10.9787
head -3.56458 1.6071 -4.59908
rclavicle 1.33186e-014 -9.74045e-015
rhumerus -43.7562 5.25223 -79.4346
rradius 48.2656
rwrist -0.308096
rhand -10.9204 -17.6141
rfingers 7.12502
rthumb 15.0972 -47.0435
lclavicle 1.33186e-014 -9.74045e-015
lhumerus -42.8794 -9.46393 79.9348
lradius 52.6682
lwrist 3.14283
lhand -3.43142 8.70824
lfingers 7.12502
lthumb 22.2999 37.4415
rfemur -16.8997 9.39079 19.4663
rtibia 31.6475
rfoot -15.9356 1.98295
rtoes 5.75179
lfemur -12.7409 -7.60494 -14.5801
ltibia 28.7039
lfoot -22.2205 -9.45991
ltoes -3.04164
694
root 39.0393 17.4625 1.01079 -182.746 88.0973 -184.08
lowerback 21.6774 0.18355 0.707113
upperback 6.57081 0.869648 0.214891
thorax -4.9373 0.6212 -0.409459
lowerneck 2.44053 2.28762 6.84177
upperneck -11.5881 2.58133 -10.9474
head -3.57244 1.60749 -4.58943
rclavicle 1.40143e-014 3.97569e-016
rhumerus -43.7421 5.32152 -79.4643
rradius 48.3748
rwrist -0.405578
rhand -10.8783 -17.6085
rfingers 7.12502
rthumb 15.1377 -47.0349
lclavicle 1.40143e-014 3.97569e-016
lhumerus -42.9436 -9.48329 79.9711
lradius 52.6433
lwrist 3.15503
lhand -3.35212 8.72832
lfingers 7.12502
lthumb 22.376 37.4524
rfemur -16.8955 9.40083 19.442
rtibia 31.6643
rfoot -15.9419 2.018
rtoes 5.76734
lfemur -12.6823 -7.59385 -14.6135
ltibia 28.6561
lfoot -22.2166 -9.43044
ltoes -3.02489
695
root 39.0413 17.4628 1.0103 -183.743 88.1471 -185.07
lowerback 21.6584 0.202775 0.688687
upperback 6.56557 0.888748 0.20326
thorax -4.93309 0.630149 -0.416021
lowerneck 2.44569 2.28996 6.838
upperneck -11.5909 2.58744 -10.9116
head -3.5744 1.60889 -4.57795
rclavicle -5.96354e-016 -9.34288e-015
rhumerus -43.7293 5.38985 -79.501
rradius 48.4876
rwrist -0.494772
rhand -10.8365 -17.5979
rfingers 7.12502
rthumb 15.178 -47.0213
lclavicle -5.96354e-016 -9.34288e-015
lhumerus -43.0109 -9.50295 80.0022
lradius 52.6063
lwrist 3.16245
lhand -3.25652 8.76106
lfingers 7.12502
lthumb 22.4678 37.4741
rfemur -16.8973 9.40798 19.4161
rtibia 31.6846
rfoot -15.9477 2.05754
rtoes 5.78468
lfemur -12.6283 -7.58145 -14.6474
ltibia 28.6098
lfoot -22.2109 -9.40211
ltoes -2.99921
696
root 39.0431 17.463 1.00972 -184.822 88.1942 -186.144
lowerback 21.6411 0.22095 0.672532
upperback 6.55847 0.906866 0.191265
thorax -4.93169 0.638557 -0.424052
lowerneck 2.44326 2.29478 6.83393
upperneck -11.5791 2.59727 -10.8755
head -3.57037 1.61163 -4.56591
rclavicle 7.35503e-015 7.95139e-015
rhumerus -43.7179 5.4594 -79.5445
rradius 48.6041
rwrist -0.584487
rhand -10.7989 -17.5853
rfingers 7.12502
rthumb 15.2142 -47.0059
lclavicle 7.35503e-015 7.95139e-015
lhumerus -43.0792 -9.52156 80.0287
lradius 52.555
lwrist 3.16272
lhand -3.15191 8.79873
lfingers 7.12502
lthumb 22.5682 37.4996
rfemur -16.9027 9.40972 19.3886
rtibia 31.7075
rfoot -15.9532 2.09815
rtoes 5.78412
lfemur -12.5785 -7.56993 -14.6832
ltibia 28.5669
lfoot -22.2063 -9.3725
ltoes -2.97394
